<svg id="svg" version="1.1" xmlns="http://www.w3.org/2000/svg" xmlns:xlink="http://www.w3.org/1999/xlink" width="400" height="491.66666666666663" viewBox="0, 0, 400,491.66666666666663"><g id="svgg"><path id="path0" d="M117.881 283.100 C 116.676 285.719,116.283 301.426,117.395 302.538 C 118.476 303.619,119.130 303.312,120.186 301.228 C 120.736 300.143,121.535 299.011,121.963 298.711 C 125.271 296.394,130.178 285.599,127.924 285.600 C 127.037 285.600,126.789 285.144,126.723 283.399 C 126.652 281.507,125.993 281.200,122.004 281.200 L 118.755 281.200 117.881 283.100 M149.824 298.299 C 148.913 298.391,147.749 298.877,147.068 299.450 C 146.419 299.996,145.363 300.547,144.722 300.676 C 144.080 300.804,143.250 301.368,142.878 301.929 C 142.505 302.490,141.452 303.680,140.537 304.574 C 139.622 305.468,138.591 306.887,138.246 307.726 C 137.901 308.566,136.018 310.910,134.062 312.936 C 132.106 314.961,130.043 317.532,129.477 318.647 C 128.912 319.763,128.009 320.964,127.470 321.317 C 126.931 321.670,126.093 322.603,125.607 323.389 C 125.121 324.176,124.201 325.089,123.563 325.419 C 122.892 325.766,121.993 326.830,121.427 327.947 C 120.889 329.008,120.004 330.168,119.458 330.525 C 116.921 332.187,116.800 333.395,116.800 356.990 C 116.800 379.127,116.958 381.595,118.575 384.767 C 118.867 385.338,119.011 386.406,118.898 387.157 C 118.755 388.099,118.830 388.429,119.142 388.236 C 119.419 388.065,119.508 388.175,119.374 388.523 C 119.112 389.207,121.012 389.589,124.700 389.596 C 127.324 389.600,127.428 389.688,127.217 391.724 C 127.105 392.802,128.001 393.655,129.168 393.581 C 129.736 393.545,131.415 393.534,132.900 393.558 L 135.600 393.600 135.600 395.586 L 135.600 397.572 137.600 397.838 C 138.899 398.010,139.600 398.295,139.600 398.652 C 139.600 398.953,139.742 399.200,139.916 399.200 C 140.089 399.200,140.224 399.695,140.216 400.300 C 140.202 401.241,140.359 401.398,141.300 401.384 C 141.905 401.376,142.400 401.491,142.400 401.640 C 142.400 401.790,143.598 401.930,145.063 401.952 C 148.164 401.999,148.189 402.014,148.072 403.758 C 147.980 405.118,148.694 406.109,149.670 405.977 C 149.962 405.937,151.586 405.927,153.279 405.953 L 156.358 406.000 156.479 408.100 L 156.600 410.200 160.700 410.314 L 164.800 410.428 164.800 412.339 L 164.800 414.251 166.690 414.348 C 168.983 414.467,169.007 414.488,168.854 416.266 C 168.773 417.205,168.878 417.599,169.161 417.424 C 169.426 417.260,169.500 417.396,169.353 417.778 C 169.179 418.230,169.370 418.397,170.058 418.394 C 171.775 418.386,176.981 418.847,177.157 419.023 C 177.252 419.119,177.306 419.824,177.277 420.591 C 177.220 422.115,178.107 422.910,179.722 422.781 C 180.205 422.743,181.725 422.731,183.100 422.756 L 185.600 422.800 185.600 424.800 L 185.600 426.800 187.300 426.863 C 188.235 426.898,189.202 426.922,189.449 426.916 C 189.704 426.910,189.806 427.256,189.686 427.716 C 189.552 428.227,189.631 428.428,189.900 428.262 C 190.168 428.096,190.248 428.296,190.115 428.802 C 189.825 429.913,190.749 430.903,191.876 430.688 C 192.384 430.590,192.800 430.666,192.800 430.855 C 192.800 431.045,193.970 431.200,195.400 431.200 C 198.121 431.200,198.147 431.220,198.019 433.232 C 197.950 434.321,198.780 435.298,199.670 435.177 C 199.962 435.137,201.595 435.127,203.300 435.153 L 206.400 435.200 206.400 437.173 C 206.400 439.091,206.951 439.801,208.259 439.566 C 208.446 439.533,209.995 439.527,211.700 439.553 L 214.800 439.600 214.800 441.525 L 214.800 443.451 216.674 443.548 C 219.017 443.669,219.137 443.748,218.896 445.010 C 218.763 445.707,218.941 446.235,219.450 446.649 C 219.862 446.985,219.947 447.128,219.638 446.968 C 219.282 446.783,219.175 446.836,219.346 447.113 C 219.494 447.353,219.927 447.546,220.308 447.542 C 220.689 447.539,222.350 447.618,224.000 447.719 L 227.000 447.902 227.123 449.549 C 227.281 451.661,227.789 451.914,231.965 451.959 C 235.923 452.001,235.531 451.775,235.650 454.086 C 235.704 455.112,235.849 455.941,235.973 455.928 C 238.133 455.710,239.600 456.072,239.600 456.824 C 239.600 457.277,239.763 457.546,239.963 457.423 C 240.162 457.300,240.231 457.560,240.115 458.002 C 239.833 459.082,240.670 460.002,241.951 460.019 C 244.950 460.058,248.004 460.518,248.042 460.936 C 248.066 461.191,248.055 461.864,248.019 462.432 C 247.945 463.599,248.798 464.495,249.876 464.383 C 250.274 464.342,251.905 464.329,253.500 464.354 L 256.400 464.400 256.400 466.382 C 256.400 468.360,257.422 469.173,259.415 468.781 C 259.627 468.739,260.925 468.727,262.300 468.753 L 264.800 468.800 264.800 470.779 L 264.800 472.758 266.900 472.879 C 268.920 472.995,268.995 473.041,268.874 474.078 C 268.609 476.350,269.249 476.759,273.273 476.885 L 276.934 477.000 277.367 478.800 C 277.770 480.477,277.889 480.600,279.100 480.596 C 279.815 480.594,280.400 480.724,280.400 480.886 C 280.400 481.309,311.121 481.251,311.383 480.828 C 311.503 480.634,311.988 480.576,312.460 480.700 C 313.568 480.990,314.400 479.885,314.400 478.124 L 314.400 476.800 316.700 476.759 C 317.965 476.737,319.566 476.749,320.258 476.787 C 321.728 476.865,322.800 475.662,322.800 473.933 C 322.800 472.918,322.929 472.836,324.698 472.722 L 326.596 472.600 326.935 470.737 C 327.268 468.904,327.304 468.868,329.137 468.534 L 331.000 468.194 331.077 466.453 C 331.170 464.353,331.242 464.268,332.883 464.315 C 334.944 464.373,335.200 463.894,335.200 459.975 C 335.200 456.134,335.319 455.920,337.452 455.920 C 338.555 455.920,338.926 455.720,339.210 454.973 C 339.714 453.648,339.723 418.523,339.220 418.212 C 339.003 418.078,338.929 417.453,339.056 416.821 C 339.322 415.489,338.170 414.598,336.575 414.903 C 335.361 415.135,335.183 414.610,335.158 410.728 C 335.135 407.237,334.336 406.089,332.213 406.495 C 331.057 406.716,330.831 406.294,331.116 404.438 C 331.263 403.476,331.190 403.159,330.867 403.359 C 330.561 403.548,330.497 403.413,330.674 402.951 C 330.877 402.422,330.782 402.321,330.269 402.518 C 329.901 402.659,329.600 402.601,329.600 402.387 C 329.600 402.174,328.970 402.000,328.200 402.000 C 326.745 402.000,326.523 401.534,326.789 399.044 C 326.847 398.494,326.691 398.356,326.214 398.539 C 325.853 398.678,325.655 398.634,325.774 398.443 C 325.892 398.251,324.426 398.068,322.516 398.035 C 318.470 397.966,318.795 398.127,318.724 396.157 C 318.647 394.041,317.997 393.691,314.040 393.636 C 310.064 393.580,310.507 393.822,310.325 391.600 L 310.178 389.800 308.089 389.679 C 306.129 389.566,305.997 389.492,305.957 388.479 C 305.859 385.991,305.792 385.800,305.000 385.771 C 298.661 385.539,297.622 385.088,297.437 382.487 C 297.369 381.537,296.218 381.212,292.900 381.206 L 289.600 381.200 289.554 379.900 C 289.463 377.342,289.519 377.407,287.300 377.279 C 285.328 377.166,285.197 377.092,285.157 376.079 C 285.037 373.023,285.442 373.265,279.900 372.928 C 276.548 372.724,276.488 372.664,276.789 369.844 C 276.847 369.294,276.691 369.156,276.214 369.339 C 275.853 369.478,275.652 369.440,275.766 369.256 C 275.880 369.071,274.417 368.891,272.515 368.856 C 268.477 368.780,268.757 368.931,268.728 366.814 C 268.699 364.742,268.127 364.467,263.801 364.444 C 260.150 364.425,260.509 364.635,260.324 362.406 L 260.175 360.612 258.188 360.470 C 255.793 360.297,256.019 360.505,255.899 358.366 C 255.788 356.379,256.127 356.511,250.950 356.439 L 248.100 356.400 247.797 355.100 C 247.630 354.385,247.525 353.574,247.565 353.297 C 247.679 352.493,245.780 352.000,242.574 352.000 L 239.600 352.000 239.554 350.700 C 239.463 348.142,239.519 348.207,237.300 348.079 C 235.084 347.952,234.919 347.723,235.173 345.135 C 235.270 344.152,234.831 344.018,230.753 343.782 C 226.413 343.532,226.757 343.713,226.729 341.654 C 226.702 339.732,226.630 339.700,222.224 339.631 C 218.491 339.573,218.822 339.766,218.699 337.571 L 218.600 335.810 216.400 335.478 C 215.190 335.295,213.345 335.239,212.300 335.354 L 210.400 335.562 210.350 333.981 C 210.322 333.112,210.278 332.175,210.250 331.900 C 210.219 331.587,209.414 331.355,208.100 331.279 C 205.872 331.151,205.704 330.910,205.989 328.244 C 206.047 327.694,205.891 327.556,205.414 327.739 C 205.003 327.897,204.857 327.831,205.023 327.563 C 205.179 327.310,204.983 327.167,204.544 327.214 C 204.135 327.257,202.518 327.271,200.950 327.246 L 198.100 327.200 197.798 325.900 C 197.632 325.185,197.474 324.330,197.448 324.000 C 197.422 323.670,197.130 323.395,196.800 323.389 C 196.470 323.384,195.972 323.236,195.693 323.062 C 195.415 322.887,194.785 322.777,194.293 322.817 C 193.802 322.856,192.555 322.869,191.522 322.844 L 189.644 322.800 189.522 320.905 L 189.400 319.011 187.400 318.869 C 184.991 318.698,185.219 318.905,185.099 316.766 C 184.988 314.790,185.475 314.994,180.068 314.654 C 176.644 314.438,176.796 314.530,176.724 312.636 C 176.654 310.754,176.167 310.517,172.236 310.455 C 168.518 310.396,168.823 310.576,168.699 308.366 L 168.600 306.600 164.520 306.486 L 160.441 306.372 160.320 304.286 L 160.200 302.200 158.209 302.075 C 155.809 301.925,155.956 302.055,155.929 300.054 C 155.900 298.000,155.100 297.771,149.824 298.299 M78.600 306.959 C 73.219 308.487,72.261 309.105,70.814 311.976 C 68.500 316.571,68.568 319.735,71.125 326.400 C 72.305 329.478,79.291 331.678,83.861 330.412 C 90.441 328.588,91.313 327.711,92.994 321.223 C 95.120 313.019,86.687 304.662,78.600 306.959 " stroke="none" fill="#04a4db" fill-rule="evenodd"></path><path id="path1" d="M195.199 123.201 C 194.890 123.391,194.519 123.474,194.374 123.384 C 194.229 123.294,194.139 123.621,194.175 124.110 C 194.210 124.600,194.078 125.495,193.881 126.100 L 193.522 127.200 189.561 127.200 C 187.382 127.200,185.621 127.335,185.647 127.500 C 185.673 127.665,185.673 128.565,185.647 129.500 L 185.600 131.200 182.424 131.200 C 180.677 131.200,179.141 131.372,179.011 131.583 C 178.881 131.793,178.479 131.852,178.118 131.713 C 177.618 131.521,177.525 131.626,177.726 132.151 C 177.879 132.551,177.829 132.742,177.607 132.604 C 177.386 132.468,177.246 132.969,177.276 133.785 C 177.343 135.553,177.366 135.534,175.127 135.650 C 173.577 135.730,173.297 135.865,173.414 136.473 C 173.491 136.873,173.364 137.200,173.132 137.200 C 172.890 137.200,172.784 137.713,172.885 138.400 C 173.062 139.602,172.197 139.941,169.730 139.637 C 169.010 139.548,168.677 140.369,169.185 140.982 C 169.497 141.358,169.508 141.610,169.219 141.788 C 168.989 141.931,168.800 142.487,168.800 143.024 C 168.800 143.776,168.589 144.000,167.880 144.000 C 167.374 144.000,166.718 144.225,166.421 144.500 C 165.987 144.903,165.942 144.895,166.189 144.462 C 166.406 144.079,166.280 143.965,165.752 144.066 C 165.343 144.145,164.945 144.543,164.866 144.952 C 164.763 145.486,164.874 145.604,165.262 145.371 C 165.678 145.120,165.701 145.177,165.365 145.623 C 165.126 145.940,164.899 147.010,164.859 148.000 C 164.707 151.809,164.352 152.325,162.091 152.028 C 160.979 151.881,160.563 153.041,160.453 156.596 C 160.324 160.775,160.493 160.406,158.673 160.474 C 157.816 160.506,157.333 160.692,157.482 160.932 C 157.631 161.174,157.464 161.234,157.066 161.081 C 156.451 160.845,156.400 162.240,156.400 179.413 C 156.400 199.895,156.611 198.223,154.055 198.010 C 153.469 197.961,153.211 198.094,153.376 198.361 C 153.540 198.626,153.404 198.700,153.021 198.553 C 152.613 198.396,152.400 198.543,152.400 198.981 C 152.400 199.365,152.587 199.532,152.841 199.374 C 153.084 199.224,152.978 199.567,152.606 200.135 C 152.207 200.743,151.966 201.794,152.020 202.685 C 152.220 205.984,152.092 206.400,150.876 206.400 C 149.296 206.400,148.222 207.277,148.500 208.341 C 148.624 208.814,148.562 209.100,148.363 208.977 C 148.163 208.854,148.000 209.123,148.000 209.576 C 148.000 210.042,147.739 210.400,147.400 210.400 C 147.070 210.400,146.800 210.555,146.800 210.745 C 146.800 210.934,146.366 211.006,145.835 210.905 C 144.684 210.684,143.822 211.957,144.108 213.454 C 144.335 214.642,144.032 214.844,141.986 214.872 C 140.137 214.898,139.417 215.769,139.692 217.646 C 139.872 218.872,139.935 218.840,137.100 218.951 C 135.851 218.999,135.798 219.068,135.757 220.710 C 135.704 222.809,135.670 222.844,133.652 222.872 C 131.770 222.897,131.105 223.499,131.210 225.080 C 131.353 227.218,131.379 227.200,128.089 227.200 C 124.154 227.200,123.088 227.807,123.273 229.941 C 123.397 231.360,123.365 231.397,122.140 231.274 C 121.446 231.205,120.766 231.332,120.627 231.557 C 120.488 231.781,120.079 231.852,119.718 231.713 C 119.218 231.521,119.125 231.626,119.326 232.151 C 119.484 232.562,119.431 232.743,119.195 232.597 C 118.973 232.460,118.800 232.812,118.800 233.400 C 118.800 234.060,118.963 234.347,119.240 234.175 C 119.549 233.984,119.565 234.126,119.292 234.652 C 119.079 235.063,118.813 236.570,118.700 238.000 C 118.360 242.308,117.337 245.170,115.859 245.942 C 115.167 246.304,113.876 247.361,112.991 248.292 C 112.107 249.222,110.577 250.510,109.591 251.153 C 108.606 251.796,107.122 252.964,106.293 253.747 C 105.464 254.531,104.114 255.375,103.293 255.623 C 102.241 255.941,101.623 256.447,101.200 257.337 C 100.817 258.143,99.988 258.884,98.909 259.385 C 97.781 259.910,97.088 260.547,96.825 261.301 C 96.551 262.086,95.881 262.674,94.631 263.228 C 93.562 263.701,92.541 264.521,92.116 265.250 C 91.722 265.924,90.740 266.815,89.934 267.229 C 89.127 267.643,88.091 268.511,87.631 269.157 C 87.170 269.803,85.629 271.068,84.206 271.967 C 82.782 272.866,81.329 274.042,80.976 274.580 C 80.624 275.118,79.582 275.846,78.661 276.198 C 77.466 276.654,76.759 277.262,76.193 278.319 C 75.635 279.362,74.994 279.918,74.029 280.200 C 73.144 280.458,72.380 281.070,71.876 281.923 C 71.416 282.700,70.372 283.585,69.342 284.069 C 68.379 284.522,67.298 285.387,66.941 285.992 C 66.584 286.597,65.731 287.422,65.046 287.827 C 64.361 288.231,62.990 289.364,62.000 290.344 C 61.010 291.324,59.255 292.561,58.100 293.092 C 56.945 293.624,56.000 294.284,56.000 294.560 C 56.000 295.213,54.537 296.536,52.900 297.363 C 52.185 297.725,51.600 298.293,51.600 298.626 C 51.600 299.662,50.058 302.315,48.623 303.751 C 47.741 304.632,47.158 305.672,46.991 306.661 C 46.635 308.764,44.870 313.444,44.232 313.973 C 42.535 315.382,42.602 326.587,44.322 329.151 C 45.548 330.978,46.270 332.903,47.006 336.313 C 47.615 339.133,47.886 339.724,48.829 340.281 C 49.439 340.641,50.107 341.310,50.315 341.768 C 51.488 344.351,51.804 344.788,52.806 345.203 C 53.411 345.453,54.233 346.266,54.633 347.009 C 55.138 347.947,55.939 348.601,57.253 349.146 C 58.477 349.655,59.357 350.343,59.746 351.095 C 60.274 352.117,60.749 352.346,63.673 352.995 C 67.348 353.811,68.933 354.466,70.332 355.747 C 71.213 356.553,71.670 356.600,78.596 356.600 L 85.928 356.600 86.786 355.509 C 87.677 354.376,90.777 353.200,92.873 353.200 C 93.663 353.200,94.465 352.722,95.551 351.602 C 97.085 350.022,99.954 348.426,101.292 348.409 C 101.692 348.404,102.330 347.721,102.807 346.786 C 103.326 345.770,104.147 344.926,105.028 344.506 C 105.908 344.086,106.515 343.463,106.670 342.820 C 107.139 340.862,108.728 338.193,109.964 337.285 C 110.649 336.781,111.651 335.670,112.190 334.816 C 112.729 333.962,113.540 333.146,113.993 333.002 C 114.446 332.858,115.263 331.860,115.809 330.783 C 116.354 329.706,117.276 328.576,117.856 328.272 C 118.436 327.968,119.291 326.928,119.755 325.960 C 120.304 324.817,121.031 324.010,121.829 323.658 C 122.618 323.311,123.334 322.523,123.829 321.458 C 124.313 320.417,125.067 319.577,125.856 319.200 C 126.845 318.728,127.256 318.144,127.790 316.457 C 128.356 314.666,129.076 313.714,132.172 310.657 C 134.567 308.292,136.168 306.339,136.703 305.128 C 137.232 303.930,137.964 303.032,138.737 302.633 C 139.400 302.290,140.051 301.671,140.182 301.257 C 140.796 299.324,144.541 298.048,149.700 298.015 L 152.000 298.000 152.000 295.800 L 152.000 293.600 153.986 293.600 L 155.972 293.600 156.238 291.600 C 156.477 289.793,156.604 289.596,157.552 289.554 C 158.128 289.528,158.780 289.466,159.000 289.415 C 159.220 289.364,159.625 289.294,159.900 289.261 C 160.225 289.221,160.400 288.501,160.400 287.200 C 160.400 285.220,160.413 285.200,161.700 285.154 C 164.080 285.069,164.199 285.015,164.249 284.000 C 164.412 280.716,164.287 280.947,165.800 281.124 C 167.020 281.266,167.200 281.176,167.200 280.420 C 167.200 279.934,167.379 279.663,167.607 279.804 C 167.830 279.942,167.909 280.223,167.783 280.428 C 167.656 280.632,167.764 280.800,168.023 280.800 C 168.296 280.800,168.406 280.465,168.284 280.000 C 168.169 279.561,168.238 279.100,168.438 278.977 C 168.637 278.854,168.800 278.255,168.800 277.646 C 168.800 276.667,168.927 276.557,169.900 276.695 C 171.952 276.986,172.537 276.081,172.709 272.351 C 172.890 268.425,172.701 268.757,174.763 268.728 C 176.652 268.702,176.933 268.400,177.041 266.280 C 177.138 264.379,177.113 264.401,179.244 264.269 C 180.945 264.162,181.002 264.115,181.060 262.779 C 181.093 262.021,181.138 261.175,181.160 260.900 C 181.183 260.620,181.728 260.400,182.400 260.400 C 183.060 260.400,183.600 260.240,183.600 260.044 C 183.600 259.849,183.914 259.714,184.298 259.744 C 184.852 259.788,185.017 259.434,185.097 258.034 C 185.219 255.887,185.087 256.019,187.234 255.897 C 188.634 255.817,188.988 255.652,188.944 255.098 C 188.914 254.714,189.049 254.400,189.244 254.400 C 189.440 254.400,189.600 253.860,189.600 253.200 C 189.600 252.255,189.775 252.000,190.424 252.000 C 190.877 252.000,191.160 251.859,191.053 251.687 C 190.947 251.514,191.341 251.379,191.928 251.387 C 192.849 251.398,193.049 251.179,193.372 249.800 C 193.578 248.920,193.805 248.124,193.875 248.032 C 194.014 247.849,196.984 247.612,199.154 247.609 C 200.925 247.608,201.553 247.035,201.855 245.148 L 202.102 243.600 220.151 243.553 C 230.078 243.527,238.443 243.539,238.740 243.579 C 239.037 243.620,239.162 243.461,239.017 243.227 C 238.871 242.992,238.926 242.800,239.137 242.800 C 239.348 242.800,239.503 242.176,239.481 241.412 C 239.429 239.578,239.308 239.634,243.477 239.567 C 247.145 239.509,248.285 238.955,247.979 237.378 C 247.601 235.434,247.904 235.200,250.800 235.200 C 252.770 235.200,253.602 235.052,253.606 234.700 C 253.611 234.332,253.703 234.343,253.956 234.743 C 254.680 235.885,255.904 234.893,255.929 233.146 C 255.956 231.160,255.941 231.176,257.854 231.083 C 259.603 230.998,260.312 230.503,260.299 229.375 C 260.277 227.437,260.401 227.270,262.100 226.960 C 263.035 226.789,263.902 226.673,264.027 226.700 C 264.151 226.728,264.297 225.911,264.350 224.885 C 264.457 222.818,264.868 222.363,266.381 222.637 C 267.514 222.842,268.962 222.086,268.104 221.737 C 267.727 221.584,267.751 221.391,268.204 220.939 C 268.625 220.518,268.800 219.471,268.800 217.371 L 268.800 214.400 270.800 214.400 L 272.800 214.400 272.800 210.200 L 272.800 206.000 274.755 206.000 L 276.709 206.000 276.943 204.300 C 277.382 201.104,277.223 162.461,276.769 162.181 C 276.536 162.037,276.445 161.660,276.566 161.344 C 276.875 160.539,275.727 160.199,274.918 160.855 C 274.346 161.319,274.297 161.315,274.589 160.832 C 274.838 160.419,274.768 160.327,274.329 160.495 C 273.122 160.958,272.815 160.181,272.704 156.381 C 272.642 154.224,272.424 152.597,272.197 152.594 C 271.979 152.591,271.599 152.460,271.354 152.304 C 271.108 152.147,266.857 152.029,261.905 152.040 C 252.190 152.062,251.869 152.139,252.072 154.400 C 252.228 156.134,252.018 156.355,250.100 156.478 C 248.947 156.552,248.180 156.797,248.150 157.100 C 248.123 157.375,248.078 158.230,248.050 159.000 C 248.001 160.379,247.974 160.400,246.251 160.400 L 244.502 160.400 243.920 162.500 C 243.345 164.576,243.318 164.602,241.569 164.800 L 239.800 165.000 239.678 166.900 C 239.558 168.764,239.530 168.801,238.178 168.850 C 237.420 168.878,236.575 168.923,236.300 168.950 C 235.997 168.980,235.752 169.747,235.678 170.900 C 235.556 172.797,235.137 173.154,233.422 172.821 C 232.692 172.680,231.176 173.756,231.234 174.374 C 231.468 176.876,231.285 177.151,229.300 177.278 L 227.400 177.400 227.278 179.300 C 227.152 181.260,226.679 181.551,224.130 181.237 C 223.872 181.205,223.554 181.514,223.425 181.923 C 223.295 182.332,222.938 182.667,222.632 182.667 C 222.301 182.667,222.170 182.423,222.308 182.064 C 222.475 181.626,222.355 181.532,221.869 181.718 C 221.501 181.859,221.200 181.801,221.200 181.587 C 221.200 181.374,220.660 181.200,220.000 181.200 C 218.994 181.200,218.800 181.042,218.800 180.224 C 218.800 179.687,218.628 179.141,218.417 179.011 C 218.207 178.881,218.127 178.533,218.240 178.239 C 218.353 177.944,218.121 177.572,217.723 177.412 C 217.056 177.143,217.066 177.094,217.852 176.790 C 218.528 176.529,218.710 176.113,218.728 174.788 C 218.756 172.760,218.610 172.905,220.796 172.724 L 222.592 172.575 222.716 170.801 C 222.867 168.640,222.736 168.771,224.856 168.677 C 226.272 168.614,226.578 168.469,226.482 167.900 C 226.418 167.515,226.566 167.200,226.813 167.200 C 227.078 167.200,227.207 166.670,227.130 165.900 C 227.001 164.612,227.019 164.598,228.989 164.400 L 230.978 164.200 231.126 162.400 C 231.303 160.228,231.065 160.465,233.213 160.317 L 235.000 160.194 235.122 158.299 C 235.252 156.275,235.392 156.166,238.200 155.910 C 239.332 155.806,239.402 155.699,239.429 154.024 C 239.460 152.096,239.452 152.102,241.800 151.902 C 243.394 151.766,243.401 151.759,243.600 149.837 L 243.800 147.908 245.532 147.826 C 246.484 147.781,247.414 147.501,247.598 147.203 C 248.271 146.114,248.053 129.541,247.351 128.470 C 246.965 127.881,246.914 127.623,247.220 127.813 C 247.515 127.995,247.623 127.961,247.481 127.731 C 247.347 127.515,245.577 127.304,243.546 127.263 C 239.319 127.176,239.618 127.288,239.549 125.768 C 239.461 123.843,239.201 123.225,238.580 123.463 C 238.261 123.586,238.000 123.492,238.000 123.256 C 238.000 122.727,196.054 122.672,195.199 123.201 M207.005 148.101 C 206.606 148.324,206.400 149.047,206.400 150.220 C 206.400 152.099,206.183 152.251,203.770 152.058 C 202.911 151.989,201.972 153.284,202.072 154.400 C 202.228 156.134,202.018 156.355,200.100 156.478 C 198.947 156.552,198.180 156.797,198.150 157.100 C 198.123 157.375,198.078 158.230,198.050 159.000 C 198.001 160.379,197.974 160.400,196.252 160.400 C 194.493 160.400,192.896 162.937,193.767 164.347 C 193.925 164.602,193.235 164.803,191.942 164.879 C 190.608 164.957,189.797 165.199,189.680 165.556 C 189.553 165.940,189.667 166.009,190.048 165.779 C 190.496 165.509,190.508 165.561,190.111 166.051 C 189.544 166.752,189.430 186.400,189.994 186.400 C 190.176 186.400,190.231 186.761,190.115 187.202 C 189.808 188.378,190.751 189.310,191.996 189.061 C 193.309 188.798,193.781 189.135,193.872 190.400 C 194.113 193.753,194.007 193.600,196.085 193.600 L 198.000 193.600 198.000 195.600 C 198.000 196.700,198.045 197.611,198.100 197.625 C 198.155 197.639,199.008 197.742,199.996 197.855 C 202.157 198.101,201.899 197.843,202.145 200.004 C 202.258 200.992,202.362 201.800,202.375 201.800 C 206.132 201.800,206.338 201.914,206.448 204.042 L 206.542 205.864 208.571 205.936 C 209.687 205.976,211.536 206.116,212.680 206.248 L 214.760 206.487 214.880 208.344 L 215.000 210.200 225.000 210.200 L 235.000 210.200 235.200 208.200 L 235.400 206.200 237.400 206.000 L 239.400 205.800 239.429 204.024 C 239.460 202.096,239.452 202.102,241.800 201.902 C 243.383 201.767,243.401 201.747,243.528 199.989 C 243.663 198.097,244.168 197.484,245.300 197.836 C 246.210 198.119,247.678 197.650,247.382 197.171 C 247.256 196.967,247.338 196.800,247.565 196.800 C 247.802 196.800,247.920 196.120,247.842 195.200 C 247.759 194.217,247.879 193.590,248.153 193.573 C 248.399 193.558,249.365 193.513,250.300 193.473 L 252.001 193.400 252.000 195.604 C 252.000 197.374,251.843 197.906,251.200 198.307 C 250.726 198.603,250.400 198.643,250.400 198.403 C 250.400 198.182,250.046 198.000,249.614 198.000 C 248.698 198.000,247.937 199.215,248.047 200.502 C 248.090 200.996,248.096 202.525,248.062 203.900 L 248.000 206.400 246.014 206.400 L 244.028 206.400 243.762 208.400 C 243.571 209.844,243.317 210.410,242.848 210.437 C 242.492 210.457,241.660 210.502,241.000 210.537 C 239.872 210.596,239.797 210.703,239.742 212.325 C 239.662 214.689,239.535 214.748,234.477 214.787 C 232.354 214.803,231.563 215.428,231.670 217.006 C 231.794 218.849,232.081 218.761,225.690 218.835 C 222.569 218.871,220.111 219.056,220.228 219.246 C 220.346 219.436,220.131 219.472,219.751 219.326 C 219.216 219.121,219.121 219.216,219.326 219.751 C 219.503 220.213,219.439 220.348,219.133 220.159 C 218.806 219.956,218.744 220.298,218.915 221.356 L 219.156 222.837 216.678 222.719 L 214.200 222.600 214.290 221.109 C 214.358 219.991,214.189 219.515,213.617 219.209 C 212.398 218.557,211.585 218.694,211.890 219.500 C 212.141 220.162,212.117 220.162,211.462 219.513 C 210.760 218.817,200.148 218.469,200.572 219.155 C 200.665 219.305,200.259 219.421,199.670 219.413 C 198.770 219.402,198.602 219.570,198.613 220.470 C 198.621 221.059,198.486 221.453,198.313 221.347 C 198.141 221.240,198.000 221.523,198.000 221.976 C 198.000 222.838,197.120 222.914,187.709 222.859 C 186.559 222.852,185.517 223.010,185.394 223.210 C 185.270 223.410,184.636 223.467,183.985 223.337 C 182.502 223.040,181.532 223.791,181.619 225.168 C 181.749 227.214,181.773 227.200,178.289 227.200 C 174.139 227.200,173.086 227.776,173.273 229.941 C 173.397 231.360,173.365 231.397,172.140 231.274 C 171.446 231.205,170.766 231.332,170.627 231.557 C 170.488 231.781,170.079 231.852,169.718 231.713 C 169.218 231.521,169.125 231.626,169.326 232.151 C 169.484 232.562,169.431 232.743,169.195 232.597 C 168.973 232.460,168.800 232.812,168.800 233.400 C 168.800 234.060,168.963 234.347,169.240 234.175 C 169.560 233.978,169.560 234.128,169.240 234.725 C 168.998 235.178,168.800 236.459,168.800 237.574 L 168.800 239.600 166.800 239.600 L 164.800 239.600 164.800 241.600 C 164.800 243.217,164.666 243.611,164.100 243.657 C 163.207 243.729,161.977 243.844,161.165 243.932 C 160.696 243.982,160.511 244.492,160.459 245.873 C 160.373 248.137,160.520 247.981,158.366 248.101 L 156.600 248.200 156.478 250.100 C 156.367 251.828,156.266 252.000,155.354 252.000 C 154.804 252.000,154.457 252.169,154.585 252.375 C 154.715 252.585,154.385 252.672,153.834 252.572 C 152.627 252.353,152.147 253.008,152.866 253.894 C 153.256 254.376,153.264 254.472,152.895 254.250 C 152.547 254.041,152.315 254.327,152.145 255.173 C 151.952 256.140,151.693 256.400,150.924 256.400 C 149.223 256.400,148.298 257.137,148.581 258.266 C 148.754 258.955,148.692 259.180,148.382 258.989 C 148.090 258.808,147.959 259.043,148.010 259.655 C 148.053 260.175,148.069 261.431,148.044 262.447 L 148.000 264.295 146.352 264.516 C 144.299 264.791,143.991 265.097,143.718 267.132 C 143.502 268.748,143.486 268.761,141.650 268.880 L 139.800 269.000 139.679 270.873 C 139.555 272.795,138.944 273.261,136.400 273.373 C 136.046 273.389,135.782 273.810,135.757 274.400 C 135.641 277.068,135.596 277.200,134.800 277.200 C 134.360 277.200,133.997 277.425,133.994 277.700 C 133.989 278.070,133.899 278.060,133.646 277.661 C 133.185 276.934,131.801 277.246,131.795 278.078 C 131.792 278.444,131.657 278.876,131.495 279.038 C 131.333 279.201,131.197 280.428,131.193 281.767 C 131.172 289.038,129.854 294.773,127.950 295.884 C 127.271 296.280,126.287 297.455,125.747 298.515 C 125.196 299.596,124.319 300.636,123.734 300.903 C 123.116 301.184,122.399 302.069,121.963 303.087 C 121.464 304.251,120.808 305.000,119.914 305.427 C 119.055 305.837,118.369 306.595,117.934 307.617 C 117.478 308.687,116.815 309.397,115.834 309.864 C 115.045 310.240,114.398 310.830,114.396 311.174 C 114.386 312.759,112.410 315.984,110.841 316.974 C 109.951 317.536,108.944 318.535,108.603 319.194 C 108.262 319.853,107.521 320.695,106.956 321.066 C 106.391 321.436,105.519 322.666,105.017 323.799 C 104.372 325.258,103.764 326.001,102.931 326.346 C 102.154 326.668,101.628 327.265,101.378 328.110 C 101.120 328.982,100.498 329.667,99.416 330.270 C 98.270 330.907,97.595 331.684,96.976 333.076 C 96.024 335.216,92.626 338.628,91.052 339.023 C 90.493 339.163,89.573 339.884,89.007 340.626 C 86.376 344.075,70.017 343.727,67.000 340.158 C 66.560 339.637,65.390 338.795,64.400 338.286 C 63.190 337.664,62.359 336.873,61.863 335.873 C 61.458 335.055,60.527 333.928,59.794 333.368 C 57.822 331.864,57.507 330.556,57.300 323.000 C 57.084 315.105,57.418 313.251,59.384 311.420 C 60.105 310.749,60.909 309.534,61.171 308.721 C 61.764 306.883,65.868 302.981,67.609 302.598 C 68.488 302.405,69.035 301.933,69.493 300.975 C 69.919 300.081,70.714 299.353,71.842 298.822 C 72.834 298.356,73.766 297.557,74.073 296.911 C 74.377 296.270,75.327 295.451,76.319 294.974 C 77.265 294.520,78.390 293.571,78.819 292.865 C 79.249 292.158,80.011 291.424,80.514 291.233 C 81.016 291.042,82.328 289.989,83.429 288.894 C 84.530 287.799,86.179 286.521,87.092 286.055 C 88.006 285.589,89.235 284.577,89.822 283.806 C 90.472 282.955,91.481 282.228,92.394 281.955 C 93.476 281.630,94.051 281.154,94.448 280.252 C 94.807 279.438,95.602 278.711,96.719 278.174 C 97.665 277.720,98.772 276.800,99.180 276.129 C 99.588 275.458,100.741 274.513,101.742 274.028 C 102.744 273.543,103.676 272.792,103.813 272.358 C 103.951 271.925,104.773 271.122,105.639 270.575 C 106.506 270.028,108.002 268.805,108.964 267.856 C 113.203 263.677,118.170 263.317,118.684 267.152 C 118.926 268.955,119.330 269.144,120.777 268.131 C 121.303 267.763,121.602 267.673,121.443 267.931 C 121.269 268.212,121.399 268.400,121.769 268.400 C 122.380 268.400,122.707 267.475,122.740 265.655 C 122.762 264.423,122.781 264.411,124.751 264.333 C 125.677 264.297,126.545 264.089,126.679 263.872 C 126.814 263.654,126.723 263.600,126.479 263.751 C 126.230 263.905,126.290 263.536,126.614 262.913 C 126.934 262.301,127.196 261.485,127.198 261.100 C 127.199 260.614,127.536 260.387,128.300 260.357 C 131.111 260.249,130.992 260.345,131.121 258.100 L 131.242 256.000 132.921 255.953 C 133.844 255.927,134.735 255.927,134.900 255.953 C 135.065 255.979,135.179 255.865,135.153 255.700 C 135.127 255.535,135.127 254.635,135.153 253.700 L 135.200 252.000 138.224 252.000 C 139.887 252.000,141.160 251.859,141.053 251.687 C 140.947 251.514,141.341 251.379,141.930 251.387 C 142.858 251.398,143.053 251.179,143.403 249.730 C 143.905 247.651,143.904 247.652,145.820 247.504 C 146.876 247.422,147.409 247.185,147.427 246.791 C 147.490 245.383,148.101 243.597,148.532 243.560 C 148.789 243.538,149.628 243.493,150.395 243.460 C 151.751 243.402,151.794 243.350,151.915 241.613 C 152.067 239.451,151.910 239.613,153.917 239.535 C 155.669 239.466,156.400 238.466,156.400 236.140 C 156.400 235.279,156.567 235.200,158.400 235.200 L 160.400 235.200 160.400 233.200 L 160.400 231.200 162.300 231.154 C 163.345 231.129,164.515 231.140,164.900 231.179 C 165.285 231.218,165.600 231.076,165.600 230.863 C 165.600 230.649,165.961 230.569,166.402 230.685 C 167.550 230.985,168.503 230.052,168.274 228.852 C 167.988 227.359,168.688 226.522,170.052 226.722 C 171.435 226.925,172.529 226.137,172.265 225.127 C 172.160 224.727,172.238 224.500,172.437 224.623 C 172.642 224.749,172.800 223.543,172.800 221.855 L 172.800 218.864 174.003 218.599 C 174.774 218.430,175.106 218.167,174.927 217.867 C 174.763 217.595,174.922 217.623,175.306 217.934 C 176.078 218.560,176.737 218.273,176.778 217.292 C 177.007 211.906,177.193 206.146,177.196 204.357 L 177.200 202.114 178.900 201.746 C 180.490 201.402,180.596 201.295,180.541 200.091 C 180.509 199.383,180.633 198.897,180.817 199.010 C 181.279 199.296,181.193 187.171,180.727 186.279 C 180.519 185.883,180.046 185.588,179.675 185.625 C 177.348 185.856,177.200 185.723,177.200 183.400 C 177.200 181.077,177.271 181.007,179.462 181.179 C 180.993 181.300,181.057 180.956,181.164 171.950 L 181.200 168.900 182.500 168.598 C 183.215 168.432,184.070 168.274,184.400 168.248 C 185.061 168.195,185.096 167.977,185.157 163.521 L 185.200 160.442 187.300 160.321 L 189.400 160.200 189.520 158.341 C 189.649 156.352,190.075 156.018,192.500 156.005 C 193.553 156.000,193.600 155.914,193.600 154.000 L 193.600 152.000 196.624 152.000 C 198.287 152.000,199.560 151.859,199.453 151.687 C 199.347 151.514,199.741 151.379,200.330 151.387 C 201.230 151.398,201.398 151.230,201.387 150.330 C 201.379 149.741,201.514 149.347,201.687 149.453 C 201.859 149.560,202.000 149.307,202.000 148.890 C 202.000 147.821,202.050 147.802,204.976 147.781 C 206.614 147.770,207.381 147.891,207.005 148.101 " stroke="none" fill="#fad304" fill-rule="evenodd"></path><path id="path2" d="M117.784 237.500 C 117.080 239.460,112.206 244.640,109.959 245.815 C 109.387 246.114,108.619 246.816,108.254 247.374 C 107.888 247.933,106.875 248.753,106.004 249.198 C 105.132 249.643,104.010 250.563,103.510 251.244 C 103.009 251.925,101.976 252.778,101.214 253.141 C 100.452 253.503,99.415 254.415,98.909 255.166 C 98.404 255.918,97.268 256.856,96.385 257.251 C 95.491 257.652,94.475 258.507,94.090 259.184 C 93.700 259.870,92.849 260.581,92.133 260.819 C 91.437 261.050,89.817 262.231,88.533 263.441 C 87.250 264.652,85.734 265.892,85.165 266.198 C 84.596 266.503,83.641 267.396,83.042 268.181 C 82.442 268.967,81.332 269.868,80.574 270.185 C 79.808 270.505,78.840 271.365,78.393 272.122 C 77.884 272.984,77.003 273.713,75.987 274.112 C 74.812 274.574,74.228 275.115,73.800 276.137 C 73.363 277.184,72.899 277.603,71.942 277.813 C 71.240 277.967,69.841 278.851,68.833 279.777 C 67.825 280.703,66.055 282.062,64.900 282.798 C 63.745 283.533,62.800 284.277,62.800 284.451 C 62.800 284.962,60.733 286.731,59.575 287.210 C 58.987 287.454,58.263 288.108,57.966 288.664 C 57.668 289.220,56.568 290.109,55.521 290.640 C 54.433 291.191,53.364 292.097,53.024 292.754 C 52.697 293.386,51.788 294.282,51.003 294.745 C 50.083 295.288,49.316 296.196,48.841 297.305 C 48.411 298.307,47.683 299.216,47.096 299.484 C 46.086 299.944,45.277 301.617,44.420 305.020 C 44.160 306.053,43.580 306.960,42.821 307.521 C 40.956 308.900,40.667 310.688,40.641 321.000 C 40.616 331.241,40.972 333.657,42.818 335.759 C 43.432 336.459,44.325 338.238,44.801 339.713 C 45.377 341.496,46.043 342.698,46.788 343.298 C 47.404 343.794,48.190 344.760,48.535 345.444 C 49.515 347.387,52.644 350.376,54.607 351.244 C 55.587 351.678,56.601 352.430,56.860 352.916 C 57.510 354.137,58.324 354.677,60.256 355.168 C 61.166 355.400,62.654 356.209,63.561 356.967 C 67.441 360.209,88.512 360.525,92.875 357.407 C 93.604 356.886,95.413 355.881,96.896 355.173 C 98.476 354.418,100.007 353.342,100.592 352.575 C 101.156 351.836,102.113 351.151,102.790 351.002 C 104.015 350.733,105.600 349.125,105.600 348.151 C 105.600 347.854,106.208 347.357,106.951 347.046 C 107.987 346.613,108.468 346.048,109.012 344.625 C 109.402 343.602,110.232 342.405,110.859 341.958 C 111.486 341.512,112.547 340.349,113.218 339.373 C 113.889 338.398,114.672 337.600,114.957 337.600 C 115.797 337.600,116.648 336.351,117.412 334.000 C 117.844 332.671,118.636 331.325,119.414 330.600 C 120.123 329.940,121.086 328.639,121.555 327.708 C 122.024 326.778,122.929 325.747,123.565 325.418 C 124.202 325.089,125.121 324.176,125.607 323.389 C 126.093 322.603,126.931 321.670,127.470 321.317 C 128.009 320.964,128.912 319.763,129.477 318.647 C 130.043 317.532,132.106 314.961,134.062 312.936 C 136.018 310.910,137.901 308.566,138.246 307.726 C 138.591 306.887,139.622 305.468,140.537 304.574 C 141.452 303.680,142.505 302.490,142.878 301.929 C 143.250 301.368,144.080 300.804,144.722 300.676 C 145.363 300.547,146.419 299.996,147.068 299.450 C 147.745 298.880,148.918 298.389,149.824 298.296 L 151.400 298.134 149.714 298.067 C 148.786 298.030,147.436 298.259,146.714 298.576 C 145.991 298.892,144.894 299.258,144.274 299.390 C 142.870 299.687,138.285 304.273,137.132 306.533 C 136.668 307.444,134.714 309.818,132.792 311.809 C 130.444 314.240,128.999 316.120,128.390 317.534 C 127.825 318.849,127.086 319.845,126.422 320.189 C 125.837 320.491,125.033 321.344,124.634 322.085 C 124.235 322.826,123.303 323.829,122.564 324.313 C 121.824 324.798,120.852 325.914,120.404 326.792 C 119.956 327.670,119.140 328.683,118.591 329.043 C 118.042 329.402,116.960 330.890,116.188 332.348 C 115.415 333.807,113.527 336.402,111.992 338.115 C 110.457 339.828,108.834 341.950,108.384 342.831 C 107.368 344.823,103.199 349.065,100.946 350.400 C 100.017 350.950,98.480 351.961,97.529 352.646 C 95.954 353.781,92.873 355.252,87.963 357.215 C 83.049 359.178,71.629 358.579,66.090 356.066 C 64.171 355.195,61.957 354.281,61.171 354.034 C 60.385 353.787,59.125 352.943,58.371 352.157 C 57.617 351.372,56.370 350.405,55.600 350.007 C 52.683 348.501,46.705 341.252,45.793 338.116 C 45.431 336.873,44.506 334.653,43.736 333.184 C 41.088 328.129,41.001 312.817,43.602 309.600 C 44.540 308.440,45.258 306.973,46.207 304.275 C 46.580 303.216,47.586 301.541,48.443 300.551 C 49.299 299.561,50.000 298.560,50.000 298.327 C 50.000 297.785,54.935 292.965,56.866 291.621 C 57.672 291.059,60.076 289.160,62.207 287.400 C 64.339 285.640,66.829 283.705,67.742 283.100 C 68.654 282.495,69.760 281.572,70.200 281.051 C 70.640 280.529,71.760 279.629,72.690 279.052 C 73.619 278.475,74.681 277.543,75.049 276.981 C 75.418 276.419,76.224 275.698,76.842 275.378 C 77.460 275.059,78.755 274.033,79.721 273.099 C 80.687 272.164,82.179 270.909,83.038 270.308 C 83.897 269.708,85.950 268.039,87.600 266.600 C 89.250 265.161,91.305 263.492,92.166 262.892 C 93.028 262.291,94.362 261.170,95.131 260.400 C 95.899 259.630,97.116 258.640,97.834 258.200 C 98.552 257.760,99.542 256.885,100.034 256.255 C 100.526 255.625,101.485 254.773,102.165 254.362 C 102.844 253.950,104.120 252.968,105.000 252.178 C 105.880 251.389,107.410 250.126,108.400 249.371 C 109.390 248.616,111.372 247.107,112.805 246.019 C 115.780 243.760,118.171 240.108,118.515 237.300 C 118.784 235.113,118.625 235.156,117.784 237.500 M113.094 267.135 C 112.485 267.536,111.765 268.137,111.494 268.470 C 111.049 269.016,109.553 270.227,104.286 274.306 C 100.002 277.624,98.166 279.141,96.258 280.938 C 95.126 282.003,93.719 283.126,93.132 283.432 C 92.544 283.738,91.675 284.533,91.200 285.200 C 90.725 285.867,89.766 286.707,89.068 287.068 C 87.895 287.675,86.900 288.488,80.978 293.681 C 79.798 294.716,78.331 295.827,77.717 296.150 C 77.102 296.474,75.995 297.388,75.255 298.182 C 74.516 298.976,73.436 299.871,72.855 300.171 C 72.275 300.472,71.207 301.456,70.481 302.359 C 69.756 303.261,68.916 304.000,68.615 304.000 C 67.633 304.000,63.142 308.551,62.102 310.600 C 61.543 311.700,60.684 313.140,60.193 313.800 C 55.678 319.864,59.380 333.056,66.899 337.694 C 73.453 341.737,72.409 341.400,78.400 341.400 C 84.836 341.400,85.415 341.264,87.802 339.198 C 88.818 338.319,89.813 337.600,90.015 337.600 C 90.517 337.600,95.600 332.430,95.600 331.920 C 95.600 331.536,97.990 328.917,101.863 325.058 C 102.778 324.146,103.814 322.701,104.165 321.847 C 104.516 320.992,106.312 318.742,108.156 316.847 C 110.000 314.951,111.911 312.598,112.404 311.618 C 113.438 309.562,117.230 305.619,119.109 304.647 C 119.819 304.280,120.746 303.290,121.185 302.430 C 121.621 301.575,122.395 300.544,122.906 300.138 C 123.417 299.732,124.423 298.542,125.141 297.494 C 125.859 296.445,126.796 295.262,127.223 294.865 C 129.287 292.941,131.003 285.351,129.300 285.674 C 128.771 285.775,128.570 286.276,128.477 287.728 C 128.349 289.735,123.780 297.438,121.963 298.711 C 121.535 299.011,120.727 300.160,120.167 301.265 C 119.283 303.009,119.024 303.243,118.203 303.037 C 117.126 302.766,116.150 303.550,115.429 305.267 C 115.174 305.872,114.349 306.784,113.596 307.291 C 112.748 307.862,112.076 308.737,111.833 309.583 C 111.573 310.491,110.169 312.216,107.664 314.704 C 104.783 317.567,103.675 318.980,102.991 320.664 C 102.383 322.160,101.689 323.118,100.841 323.633 C 100.153 324.052,99.287 325.028,98.918 325.803 C 98.549 326.578,97.656 327.560,96.935 327.986 C 96.175 328.433,95.282 329.484,94.814 330.481 C 94.303 331.568,93.570 332.395,92.826 332.725 C 92.177 333.012,91.412 333.776,91.125 334.424 C 90.658 335.479,88.740 336.800,87.675 336.800 C 87.453 336.800,86.792 337.370,86.206 338.066 C 83.932 340.769,73.893 341.338,72.159 338.863 C 71.838 338.404,70.423 337.479,69.015 336.807 C 65.959 335.348,63.517 332.762,62.605 330.015 C 62.254 328.959,61.615 327.776,61.186 327.387 C 58.799 325.227,59.007 318.521,61.562 315.279 C 62.203 314.465,62.974 312.904,63.275 311.808 C 63.718 310.197,64.141 309.601,65.488 308.697 C 66.403 308.082,67.270 307.210,67.413 306.760 C 67.560 306.296,68.442 305.611,69.443 305.181 C 70.558 304.704,71.505 303.930,71.999 303.092 C 72.458 302.314,73.449 301.468,74.385 301.055 C 75.265 300.666,76.289 299.834,76.661 299.204 C 77.033 298.575,78.039 297.743,78.897 297.356 C 79.756 296.969,81.390 295.761,82.529 294.672 C 83.668 293.583,85.261 292.273,86.068 291.761 C 86.876 291.249,87.645 290.490,87.776 290.074 C 87.908 289.658,88.914 288.829,90.012 288.232 C 91.142 287.617,92.272 286.633,92.619 285.964 C 92.990 285.246,93.841 284.537,94.784 284.160 C 95.836 283.739,96.544 283.105,96.974 282.198 C 97.416 281.266,98.048 280.714,99.052 280.383 C 99.845 280.121,101.465 279.028,102.651 277.953 C 103.838 276.879,104.981 276.000,105.191 276.000 C 105.402 276.000,106.695 274.920,108.065 273.600 C 109.435 272.280,110.783 271.200,111.059 271.200 C 111.336 271.200,112.156 270.462,112.881 269.559 C 114.191 267.929,114.215 267.919,116.500 268.085 C 118.973 268.264,119.315 268.006,117.911 267.023 C 116.718 266.187,114.451 266.240,113.094 267.135 " stroke="none" fill="#749534" fill-rule="evenodd"></path><path id="path3" d="M54.558 39.932 C 54.678 40.126,54.340 40.201,53.806 40.099 C 52.876 39.921,52.184 40.985,52.423 42.226 C 52.649 43.400,52.320 43.803,51.100 43.848 C 48.062 43.962,48.000 44.006,48.000 46.085 L 48.000 48.000 46.018 48.000 C 44.012 48.000,42.847 49.658,43.786 51.177 C 44.113 51.707,43.473 51.955,41.400 52.103 C 40.499 52.167,39.778 52.431,39.750 52.708 C 39.723 52.979,39.678 53.920,39.650 54.800 L 39.600 56.400 37.600 56.400 L 35.600 56.400 35.600 60.369 L 35.600 64.339 33.500 64.673 L 31.400 65.008 31.439 267.404 C 31.460 378.722,31.502 470.298,31.532 470.907 C 31.590 472.090,32.750 472.800,34.626 472.800 C 35.539 472.800,35.980 474.396,35.647 476.500 C 35.621 476.665,36.491 476.800,37.579 476.800 L 39.558 476.800 39.679 478.900 C 39.755 480.214,39.987 481.019,40.300 481.050 C 40.575 481.077,41.514 481.122,42.387 481.150 C 43.626 481.189,43.924 481.332,43.743 481.803 C 42.994 483.756,43.961 485.200,46.018 485.200 L 48.000 485.200 48.047 486.900 C 48.073 487.835,48.077 488.724,48.055 488.876 C 48.013 489.173,49.300 489.666,49.859 489.566 C 52.607 489.074,56.400 489.673,56.400 490.600 L 56.400 491.600 77.000 491.600 L 97.600 491.600 97.600 490.600 C 97.600 489.652,98.345 489.302,99.774 489.577 C 101.336 489.878,102.000 489.166,102.000 487.192 L 102.000 485.200 103.786 485.200 C 105.793 485.200,106.549 484.390,106.326 482.478 C 106.207 481.456,106.304 481.390,108.200 481.200 L 110.200 481.000 110.321 478.900 L 110.442 476.800 112.421 476.800 L 114.400 476.800 114.400 472.800 L 114.400 468.800 115.900 468.787 C 119.050 468.761,118.784 472.579,118.796 427.217 C 118.802 404.939,118.903 386.557,119.020 386.368 C 119.137 386.178,118.966 385.508,118.641 384.878 C 116.957 381.622,116.800 379.276,116.800 357.313 C 116.800 336.958,116.776 336.297,116.069 336.938 C 115.666 337.302,115.135 337.600,114.888 337.600 C 114.641 337.600,113.889 338.398,113.218 339.373 C 112.547 340.349,111.486 341.512,110.859 341.958 C 110.232 342.405,109.402 343.602,109.012 344.625 C 108.468 346.048,107.987 346.613,106.951 347.046 C 106.208 347.357,105.600 347.854,105.600 348.151 C 105.600 349.125,104.015 350.733,102.790 351.002 C 102.113 351.151,101.156 351.836,100.592 352.575 C 100.007 353.342,98.476 354.418,96.896 355.173 C 95.413 355.881,93.604 356.886,92.875 357.407 C 90.709 358.955,87.758 359.354,78.400 359.361 C 68.304 359.369,65.989 358.996,63.561 356.967 C 62.654 356.209,61.166 355.400,60.256 355.168 C 58.324 354.677,57.510 354.137,56.860 352.916 C 56.601 352.430,55.587 351.678,54.607 351.244 C 52.644 350.376,49.515 347.387,48.535 345.444 C 48.190 344.760,47.404 343.794,46.788 343.298 C 46.043 342.698,45.377 341.496,44.801 339.713 C 44.325 338.238,43.432 336.459,42.818 335.759 C 40.972 333.657,40.616 331.241,40.641 321.000 C 40.667 310.688,40.956 308.900,42.821 307.521 C 43.580 306.960,44.160 306.053,44.420 305.020 C 45.277 301.617,46.086 299.944,47.096 299.484 C 47.683 299.216,48.411 298.307,48.841 297.305 C 49.316 296.196,50.083 295.288,51.003 294.745 C 51.788 294.282,52.697 293.386,53.024 292.754 C 53.364 292.097,54.433 291.191,55.521 290.640 C 56.568 290.109,57.668 289.220,57.966 288.664 C 58.263 288.108,58.987 287.454,59.575 287.210 C 60.733 286.731,62.800 284.962,62.800 284.451 C 62.800 284.277,63.745 283.533,64.900 282.798 C 66.055 282.062,67.825 280.703,68.833 279.777 C 69.841 278.851,71.240 277.967,71.942 277.813 C 72.899 277.603,73.363 277.184,73.800 276.137 C 74.228 275.115,74.812 274.574,75.987 274.112 C 77.003 273.713,77.884 272.984,78.393 272.122 C 78.840 271.365,79.808 270.505,80.574 270.185 C 81.332 269.868,82.442 268.967,83.042 268.181 C 83.641 267.396,84.596 266.503,85.165 266.198 C 85.734 265.892,87.250 264.652,88.533 263.441 C 89.817 262.231,91.437 261.050,92.133 260.819 C 92.849 260.581,93.700 259.870,94.090 259.184 C 94.475 258.507,95.491 257.652,96.385 257.251 C 97.268 256.856,98.404 255.918,98.909 255.166 C 99.415 254.415,100.452 253.503,101.214 253.141 C 101.976 252.778,103.009 251.925,103.510 251.244 C 104.010 250.563,105.132 249.643,106.004 249.198 C 106.875 248.753,107.888 247.933,108.254 247.374 C 108.619 246.816,109.387 246.113,109.959 245.813 C 112.489 244.484,116.830 239.838,117.821 237.400 L 118.796 235.000 118.768 149.800 C 118.739 58.685,118.782 60.991,117.096 61.016 C 116.493 61.024,116.000 60.889,116.000 60.716 C 116.000 60.542,115.640 60.400,115.200 60.400 C 114.471 60.400,114.055 58.585,114.353 56.700 C 114.379 56.535,113.509 56.400,112.421 56.400 L 110.442 56.400 110.321 54.300 L 110.200 52.200 108.120 52.080 C 106.493 51.986,106.089 51.833,106.264 51.377 C 107.007 49.442,106.032 48.000,103.982 48.000 L 102.000 48.000 102.000 46.025 L 102.000 44.049 100.263 43.789 C 99.308 43.645,98.183 43.565,97.763 43.610 C 97.344 43.655,96.245 43.671,95.322 43.646 L 93.644 43.600 93.522 41.700 L 93.400 39.800 73.870 39.690 C 62.672 39.626,54.433 39.730,54.558 39.932 M112.848 269.600 C 112.141 270.480,111.336 271.200,111.059 271.200 C 110.783 271.200,109.435 272.280,108.065 273.600 C 106.695 274.920,105.402 276.000,105.191 276.000 C 104.981 276.000,103.838 276.879,102.651 277.953 C 101.465 279.028,99.845 280.121,99.052 280.383 C 98.048 280.714,97.416 281.266,96.974 282.198 C 96.544 283.105,95.836 283.739,94.784 284.160 C 93.841 284.537,92.990 285.246,92.619 285.964 C 92.272 286.633,91.142 287.617,90.012 288.232 C 88.914 288.829,87.908 289.658,87.776 290.074 C 87.645 290.490,86.876 291.249,86.068 291.761 C 85.261 292.273,83.668 293.583,82.529 294.672 C 81.390 295.761,79.756 296.969,78.897 297.356 C 78.039 297.743,77.033 298.575,76.661 299.204 C 76.289 299.834,75.265 300.666,74.385 301.055 C 73.449 301.468,72.458 302.314,71.999 303.092 C 71.505 303.930,70.558 304.704,69.443 305.181 C 68.442 305.611,67.560 306.296,67.413 306.760 C 67.270 307.210,66.403 308.082,65.488 308.697 C 64.141 309.601,63.718 310.197,63.275 311.808 C 62.974 312.904,62.203 314.465,61.562 315.279 C 59.007 318.521,58.799 325.227,61.186 327.387 C 61.615 327.776,62.254 328.959,62.605 330.015 C 63.517 332.762,65.959 335.348,69.015 336.807 C 70.423 337.479,71.838 338.404,72.159 338.863 C 73.893 341.338,83.932 340.769,86.206 338.066 C 86.792 337.370,87.453 336.800,87.675 336.800 C 88.740 336.800,90.658 335.479,91.125 334.424 C 91.412 333.776,92.177 333.012,92.826 332.725 C 93.570 332.395,94.303 331.568,94.814 330.481 C 95.282 329.484,96.175 328.433,96.935 327.986 C 97.656 327.560,98.549 326.578,98.918 325.803 C 99.287 325.028,100.153 324.052,100.841 323.633 C 101.689 323.118,102.383 322.160,102.991 320.664 C 103.675 318.980,104.783 317.567,107.664 314.704 C 110.169 312.216,111.573 310.491,111.833 309.583 C 112.073 308.748,112.746 307.864,113.559 307.316 C 114.292 306.822,115.250 305.694,115.687 304.809 C 116.125 303.924,116.600 303.200,116.742 303.200 C 116.884 303.200,117.000 299.105,117.000 294.100 C 117.000 285.508,117.050 284.891,117.900 283.049 C 119.078 280.496,119.291 268.674,118.167 268.243 C 116.151 267.469,114.150 267.979,112.848 269.600 M126.901 284.800 C 127.015 285.222,127.646 285.413,129.031 285.443 L 131.000 285.486 129.207 285.315 C 128.220 285.222,127.261 284.932,127.076 284.672 C 126.843 284.346,126.789 284.385,126.901 284.800 M83.860 306.958 C 92.401 309.232,95.411 316.769,91.400 325.838 C 90.326 328.266,89.252 328.918,83.861 330.412 C 79.291 331.678,72.305 329.478,71.125 326.400 C 67.619 317.259,69.070 310.436,75.000 308.176 C 79.763 306.360,80.985 306.192,83.860 306.958 " stroke="none" fill="#24643c" fill-rule="evenodd"></path><path id="path4" d="M118.459 237.600 C 118.317 240.849,115.097 244.597,108.245 249.490 C 107.390 250.100,105.950 251.293,105.045 252.139 C 104.140 252.986,102.921 253.927,102.336 254.231 C 101.751 254.535,100.761 255.391,100.136 256.133 C 99.511 256.876,98.460 257.817,97.800 258.225 C 97.140 258.634,95.957 259.605,95.172 260.384 C 94.386 261.163,93.036 262.291,92.172 262.892 C 91.307 263.492,89.250 265.161,87.600 266.600 C 85.950 268.039,83.897 269.708,83.038 270.308 C 82.179 270.909,80.687 272.164,79.721 273.099 C 78.755 274.033,77.460 275.059,76.842 275.378 C 76.224 275.698,75.418 276.419,75.049 276.981 C 74.681 277.543,73.619 278.475,72.690 279.052 C 71.760 279.629,70.640 280.529,70.200 281.051 C 69.760 281.572,68.654 282.495,67.742 283.100 C 66.829 283.705,64.339 285.640,62.207 287.400 C 60.076 289.160,57.672 291.059,56.866 291.621 C 54.935 292.965,50.000 297.785,50.000 298.327 C 50.000 298.560,49.299 299.561,48.443 300.551 C 47.586 301.541,46.580 303.216,46.207 304.275 C 45.258 306.973,44.540 308.440,43.602 309.600 C 41.001 312.817,41.088 328.129,43.736 333.184 C 44.506 334.653,45.431 336.873,45.793 338.116 C 46.705 341.252,52.683 348.501,55.600 350.007 C 56.370 350.405,57.617 351.372,58.371 352.157 C 59.125 352.943,60.385 353.787,61.171 354.034 C 61.957 354.281,64.171 355.195,66.090 356.066 C 71.629 358.579,83.049 359.178,87.963 357.215 C 92.873 355.252,95.954 353.781,97.529 352.646 C 98.480 351.961,100.017 350.950,100.946 350.400 C 103.199 349.065,107.368 344.823,108.384 342.831 C 108.834 341.950,110.457 339.828,111.992 338.115 C 113.527 336.402,115.415 333.807,116.188 332.348 C 116.960 330.890,118.042 329.402,118.591 329.043 C 119.140 328.683,119.956 327.670,120.404 326.792 C 120.852 325.914,121.824 324.798,122.564 324.313 C 123.303 323.829,124.235 322.826,124.634 322.085 C 125.033 321.344,125.837 320.491,126.422 320.189 C 127.086 319.845,127.825 318.849,128.390 317.534 C 128.999 316.120,130.444 314.240,132.792 311.809 C 134.714 309.818,136.668 307.444,137.132 306.533 C 138.279 304.285,142.869 299.689,144.274 299.382 C 147.985 298.569,148.342 297.883,144.698 298.568 C 141.971 299.080,140.617 299.887,140.182 301.257 C 140.051 301.671,139.400 302.290,138.737 302.633 C 137.964 303.032,137.232 303.930,136.703 305.128 C 136.168 306.339,134.567 308.292,132.172 310.657 C 129.076 313.714,128.356 314.666,127.790 316.457 C 127.256 318.144,126.845 318.728,125.856 319.200 C 125.067 319.577,124.313 320.417,123.829 321.458 C 123.334 322.523,122.618 323.311,121.829 323.658 C 121.031 324.010,120.304 324.817,119.755 325.960 C 119.291 326.928,118.436 327.968,117.856 328.272 C 117.276 328.576,116.354 329.706,115.809 330.783 C 115.263 331.860,114.446 332.858,113.993 333.002 C 113.540 333.146,112.729 333.962,112.190 334.816 C 111.651 335.670,110.649 336.781,109.964 337.285 C 108.728 338.193,107.139 340.862,106.670 342.820 C 106.515 343.463,105.908 344.086,105.028 344.506 C 104.147 344.926,103.326 345.770,102.807 346.786 C 102.330 347.721,101.692 348.404,101.292 348.409 C 99.954 348.426,97.085 350.022,95.551 351.602 C 94.465 352.722,93.663 353.200,92.873 353.200 C 90.777 353.200,87.677 354.376,86.786 355.509 L 85.928 356.600 78.596 356.600 C 71.670 356.600,71.213 356.553,70.332 355.747 C 68.933 354.466,67.348 353.811,63.673 352.995 C 60.749 352.346,60.274 352.117,59.746 351.095 C 59.357 350.343,58.477 349.655,57.253 349.146 C 55.939 348.601,55.138 347.947,54.633 347.009 C 54.233 346.266,53.411 345.453,52.806 345.203 C 51.804 344.788,51.488 344.351,50.315 341.768 C 50.107 341.310,49.439 340.641,48.829 340.281 C 47.886 339.724,47.615 339.133,47.006 336.313 C 46.270 332.903,45.548 330.978,44.322 329.151 C 42.602 326.587,42.535 315.382,44.232 313.973 C 44.870 313.444,46.635 308.764,46.991 306.661 C 47.158 305.672,47.741 304.632,48.623 303.751 C 50.058 302.315,51.600 299.662,51.600 298.626 C 51.600 298.293,52.185 297.725,52.900 297.363 C 54.537 296.536,56.000 295.213,56.000 294.560 C 56.000 294.284,56.945 293.624,58.100 293.092 C 59.255 292.561,61.010 291.324,62.000 290.344 C 62.990 289.364,64.361 288.231,65.046 287.827 C 65.731 287.422,66.584 286.597,66.941 285.992 C 67.298 285.387,68.379 284.522,69.342 284.069 C 70.372 283.585,71.416 282.700,71.876 281.923 C 72.380 281.070,73.144 280.458,74.029 280.200 C 74.994 279.918,75.635 279.362,76.193 278.319 C 76.759 277.262,77.466 276.654,78.661 276.198 C 79.582 275.846,80.624 275.118,80.976 274.580 C 81.329 274.042,82.782 272.866,84.206 271.967 C 85.629 271.068,87.170 269.803,87.631 269.157 C 88.091 268.511,89.127 267.643,89.934 267.229 C 90.740 266.815,91.722 265.924,92.116 265.250 C 92.541 264.521,93.562 263.701,94.631 263.228 C 95.881 262.674,96.551 262.086,96.825 261.301 C 97.088 260.547,97.781 259.910,98.909 259.385 C 99.988 258.884,100.817 258.143,101.200 257.337 C 101.623 256.447,102.241 255.941,103.293 255.623 C 104.114 255.375,105.464 254.532,106.293 253.749 C 107.122 252.967,108.730 251.717,109.866 250.973 C 111.002 250.228,112.323 249.071,112.800 248.400 C 113.277 247.730,114.366 246.825,115.220 246.390 C 116.074 245.954,116.939 245.283,117.141 244.899 C 117.831 243.587,118.869 238.565,118.694 237.381 C 118.529 236.259,118.517 236.270,118.459 237.600 M113.381 264.913 C 111.507 265.662,109.232 267.192,108.805 267.990 C 108.594 268.385,107.438 269.361,106.236 270.159 C 105.034 270.956,103.941 271.955,103.807 272.378 C 103.673 272.801,102.744 273.543,101.742 274.028 C 100.741 274.513,99.588 275.458,99.180 276.129 C 98.772 276.800,97.665 277.720,96.719 278.174 C 95.602 278.711,94.807 279.438,94.448 280.252 C 94.051 281.154,93.476 281.630,92.394 281.955 C 91.481 282.228,90.472 282.955,89.822 283.806 C 89.235 284.577,88.006 285.589,87.092 286.055 C 86.179 286.521,84.530 287.799,83.429 288.894 C 82.328 289.989,81.016 291.042,80.514 291.233 C 80.011 291.424,79.249 292.158,78.819 292.865 C 78.390 293.571,77.265 294.520,76.319 294.974 C 75.327 295.451,74.377 296.270,74.073 296.911 C 73.766 297.557,72.834 298.356,71.842 298.822 C 70.714 299.353,69.919 300.081,69.493 300.975 C 69.035 301.933,68.488 302.405,67.609 302.598 C 65.868 302.981,61.764 306.883,61.171 308.721 C 60.909 309.534,60.105 310.749,59.384 311.420 C 57.418 313.251,57.084 315.105,57.300 323.000 C 57.507 330.556,57.822 331.864,59.794 333.368 C 60.527 333.928,61.458 335.055,61.863 335.873 C 62.359 336.873,63.190 337.664,64.400 338.286 C 65.390 338.795,66.560 339.637,67.000 340.158 C 68.781 342.265,70.057 342.570,77.777 342.731 C 86.015 342.903,87.480 342.628,89.007 340.626 C 89.573 339.884,90.493 339.163,91.052 339.023 C 92.626 338.628,96.024 335.216,96.976 333.076 C 97.595 331.684,98.270 330.907,99.416 330.270 C 100.498 329.667,101.120 328.982,101.378 328.110 C 101.628 327.265,102.154 326.668,102.931 326.346 C 103.764 326.001,104.372 325.258,105.017 323.799 C 105.519 322.666,106.391 321.436,106.956 321.066 C 107.521 320.695,108.262 319.853,108.603 319.194 C 108.944 318.535,109.951 317.536,110.841 316.974 C 112.410 315.984,114.386 312.759,114.396 311.174 C 114.398 310.830,115.045 310.240,115.834 309.864 C 116.815 309.397,117.478 308.687,117.934 307.617 C 118.369 306.595,119.055 305.837,119.914 305.427 C 120.808 305.000,121.464 304.251,121.963 303.087 C 122.399 302.069,123.116 301.184,123.734 300.903 C 124.319 300.636,125.196 299.596,125.747 298.515 C 126.287 297.455,127.271 296.280,127.950 295.884 C 129.753 294.832,132.219 284.834,130.515 285.488 C 130.203 285.608,130.000 286.381,130.000 287.451 C 130.000 289.462,128.380 293.787,127.223 294.865 C 126.796 295.262,125.859 296.445,125.141 297.494 C 124.423 298.542,123.417 299.732,122.906 300.138 C 122.395 300.544,121.621 301.575,121.185 302.430 C 120.746 303.290,119.819 304.280,119.109 304.647 C 117.230 305.619,113.438 309.562,112.404 311.618 C 111.911 312.598,110.000 314.951,108.156 316.847 C 106.312 318.742,104.516 320.992,104.165 321.847 C 103.814 322.701,102.778 324.146,101.863 325.058 C 97.990 328.917,95.600 331.536,95.600 331.920 C 95.600 332.430,90.517 337.600,90.015 337.600 C 89.813 337.600,88.818 338.319,87.802 339.198 C 85.415 341.264,84.836 341.400,78.400 341.400 C 72.409 341.400,73.453 341.737,66.899 337.694 C 59.380 333.056,55.678 319.864,60.193 313.800 C 60.684 313.140,61.543 311.700,62.102 310.600 C 63.142 308.551,67.633 304.000,68.615 304.000 C 68.916 304.000,69.756 303.261,70.481 302.359 C 71.207 301.456,72.275 300.472,72.855 300.171 C 73.436 299.871,74.516 298.976,75.255 298.182 C 75.995 297.388,77.102 296.474,77.717 296.150 C 78.331 295.827,79.798 294.716,80.978 293.681 C 86.900 288.488,87.895 287.675,89.068 287.068 C 89.766 286.707,90.725 285.867,91.200 285.200 C 91.675 284.533,92.544 283.738,93.132 283.432 C 93.719 283.126,95.126 282.003,96.258 280.938 C 98.166 279.141,100.002 277.624,104.286 274.306 C 109.553 270.227,111.049 269.016,111.494 268.470 C 113.121 266.473,116.179 265.810,117.971 267.064 C 118.914 267.725,118.917 267.722,118.631 266.564 C 118.162 264.666,115.832 263.932,113.381 264.913 " stroke="none" fill="#aca414" fill-rule="evenodd"></path></g></svg>